PathFileType        4      (X/Y/Z)      C:\Users\pc\Desktop\IMUTRC\Sujet_01\Sujet_01_velo_80.trc         
DataRate	CameraRate	NumFrames	NumMarkers	Units	OrigDataRate	OrigDataStartFrame	OrigNumFrames
60.0	60.0	4	64	mm	60.0	862	984
Frame#	Time	pHipOrigin			pRightASI			pLeftASI			pRightCSI			pLeftCSI			pRightIschialTub			pLeftIschialTub			pSacrum			pL5SpinalProcess			pL3SpinalProcess			pT12SpinalProcess			pIJ			pT4SpinalProcess			pT8SpinalProcess			pPX			pC7SpinalProcess			pTopOfHead			pRightAuricularis			pLeftAuricularis			pBackOfHead			pRightAcromion			pLeftAcromion			pRightArmLatEpicondyle			pRightArmMedEpicondyle			pLeftArmLatEpicondyle			pLeftArmMedEpicondyle			pRightUlnarStyloid			pRightRadialStyloid			pRightOlecranon			pLeftUlnarStyloid			pLeftRadialStyloid			pLeftOlecranon			pRightTopOfHand			pRightPinky			pRightBallHand			pLeftTopOfHand			pLeftPinky			pLeftBallHand			pRightGreaterTrochanter			pRightKneeLatEpicondyle			pRightKneeMedEpicondyle			pRightPatella			pLeftGreaterTrochanter			pLeftKneeLatEpicondyle			pLeftKneeMedEpicondyle			pLeftPatella			pRightTibialTub			pRightLatMalleolus			pRightMedMalleolus			pLeftTibialTub			pLeftLatMalleolus			pLeftMedMalleolus			pRightHeelFoot			pRightFirstMetatarsal			pRightFifthMetatarsal			pRightPivotFoot			pRightHeelCenter			pRightToe			pLeftHeelFoot			pLeftFirstMetatarsal			pLeftFifthMetatarsal			pLeftPivotFoot			pLeftHeelCenter			pLeftToe			
		X1	Y1	Z1	X2	Y2	Z2	X3	Y3	Z3	X4	Y4	Z4	X5	Y5	Z5	X6	Y6	Z6	X7	Y7	Z7	X8	Y8	Z8	X9	Y9	Z9	X10	Y10	Z10	X11	Y11	Z11	X12	Y12	Z12	X13	Y13	Z13	X14	Y14	Z14	X15	Y15	Z15	X16	Y16	Z16	X17	Y17	Z17	X18	Y18	Z18	X19	Y19	Z19	X20	Y20	Z20	X21	Y21	Z21	X22	Y22	Z22	X23	Y23	Z23	X24	Y24	Z24	X25	Y25	Z25	X26	Y26	Z26	X27	Y27	Z27	X28	Y28	Z28	X29	Y29	Z29	X30	Y30	Z30	X31	Y31	Z31	X32	Y32	Z32	X33	Y33	Z33	X34	Y34	Z34	X35	Y35	Z35	X36	Y36	Z36	X37	Y37	Z37	X38	Y38	Z38	X39	Y39	Z39	X40	Y40	Z40	X41	Y41	Z41	X42	Y42	Z42	X43	Y43	Z43	X44	Y44	Z44	X45	Y45	Z45	X46	Y46	Z46	X47	Y47	Z47	X48	Y48	Z48	X49	Y49	Z49	X50	Y50	Z50	X51	Y51	Z51	X52	Y52	Z52	X53	Y53	Z53	X54	Y54	Z54	X55	Y55	Z55	X56	Y56	Z56	X57	Y57	Z57	X58	Y58	Z58	X59	Y59	Z59	X60	Y60	Z60	X61	Y61	Z61	X62	Y62	Z62	X63	Y63	Z63	X64	Y64	Z64	
862	14.35	0.0	1249.99432	7.654007714701862E-14	15.836329999999982	1333.95675	142.64648000000008	101.83058000000001	1344.7135	-91.1335899999999	-14.222820000000015	1397.5411	110.85430000000008	56.472950000000004	1406.38554	-81.39275999999991	-66.39306	1197.0472	27.788280000000068	-31.075059999999993	1201.46942	-68.30536999999993	-57.48886	1271.20903	-20.13902999999993	-22.1111	1365.80868	-1.4939899999999189	28.027309999999996	1459.33266	21.453740000000092	80.1378	1540.9047	44.461240000000096	306.80647	1557.15935	110.97382000000015	209.57738	1656.18122	93.94230000000013	143.9612	1611.06262	70.33720000000011	219.85606	1491.60292	79.06213000000011	246.92721	1681.45959	107.26872000000013	448.85535	1812.27364	143.66240000000016	378.93646	1741.21932	201.27078000000017	397.76078	1739.24725	70.81528000000014	349.29564	1773.72862	129.91766000000018	188.06387999999998	1633.11397	268.8590400000001	296.28875	1635.02628	-67.05041999999986	257.9827599999999	1419.59244	348.33948000000015	241.60859999999997	1392.40176	304.7746300000001	410.66888	1419.41316	-66.93089999999985	369.9725	1391.62489	-44.99907999999987	352.40313999999995	1255.6715	433.97518000000014	383.0001199999999	1256.62765	402.3622800000001	233.36174999999997	1409.55281	342.4232700000002	555.76551	1274.07749	-67.11017999999986	558.09614	1276.34836	-23.306299999999855	388.0797	1408.29785	-78.70356999999987	518.2961599999999	1247.36489	493.9739500000001	437.62051999999994	1243.48051	493.8544300000001	388.61753999999996	1241.50844	446.8832800000001	709.94562	1241.68772	17.86816000000016	658.01441	1251.54807	-43.266049999999844	590.66519	1257.52405	-49.95913999999985	-42.668450000000014	1231.40904	142.8257600000001	207.54554999999996	1034.20193	277.2851600000001	244.71609999999998	1033.96289	221.29029000000008	243.46114999999998	1066.41242	257.9827600000001	68.60417000000001	1239.29733	-131.71044999999992	329.87372	1030.73586	-43.32580999999989	312.8422	1028.28571	21.6330200000001	340.33168	1060.97429	-2.3903899999998934	267.7235999999999	1005.7563	275.4923700000001	190.51402999999996	633.81172	283.67945000000003	223.08307999999997	630.82373	233.18248000000006	351.50675	985.97582	-19.362149999999897	152.56660000000002	709.88586	-188.30291999999992	141.33177000000003	690.34443	-132.54708999999994	171.21162999999999	499.35232	209.75666000000007	333.5788299999999	481.84272	299.6950600000001	273.7593299999999	474.25324	364.1160500000001	322.8818299999999	475.14963	347.80164000000013	202.82452999999998	492.06164	238.26205000000004	376.9643899999999	470.01029	397.4022200000001	25.218610000000027	630.64446	-200.79269999999997	136.25219000000004	502.99767	-122.38792999999995	163.14407000000003	504.4319	-206.41011999999995	166.43085000000002	486.14542	-158.12424999999993	53.18616000000002	598.79252	-192.42633999999998	219.01942000000003	437.26196	-142.10863999999995	
863	14.367	0.0	1249.99432	7.654007714701862E-14	17.330319999999983	1333.95675	142.46720000000008	100.51587000000002	1345.0123	-92.3287899999999	-13.266660000000014	1397.42158	111.09334000000008	55.098470000000006	1406.50506	-81.93058999999991	-65.97474	1196.86792	28.565150000000067	-31.732419999999994	1201.40966	-67.94681999999993	-57.78766	1271.08951	-19.48166999999993	-22.4099	1365.74892	-1.314709999999919	27.668759999999995	1459.45218	21.09519000000009	79.65972	1541.2035	43.564840000000096	306.50767	1558.47406	109.18103000000015	208.92002	1657.13738	91.91047000000013	143.42336	1611.66022	68.78345000000012	219.61702	1492.43956	77.86693000000011	246.26986	1682.53526	104.99785000000013	447.95895	1814.00668	141.03297000000018	378.21935	1742.77307	198.64135000000016	396.92414	1740.801	68.18585000000016	348.459	1775.16285	127.34799000000015	188.24315999999996	1634.5482	267.18576000000013	295.39236	1635.08604	-69.08224999999986	257.14612999999997	1420.78764	347.8016400000002	240.53291999999996	1393.41768	304.4160800000002	409.53345	1419.29364	-68.18584999999986	368.83707	1391.68465	-45.95522999999987	351.14818999999994	1256.62765	433.6166200000001	381.62564999999995	1257.40453	401.9439600000001	232.46535999999998	1410.80776	341.9451900000002	554.63008	1274.01773	-67.64801999999986	556.84119	1276.34836	-23.844129999999854	387.00403	1408.23809	-79.89875999999987	517.1607199999999	1248.50033	493.1970700000001	436.4850799999999	1244.49643	493.31659000000013	387.36258999999995	1242.46459	446.4052000000001	708.51139	1241.03036	17.56936000000016	656.75946	1251.12976	-43.68435999999984	589.41024	1257.40453	-50.49696999999985	-42.60869000000002	1229.37721	142.5269600000001	196.43023999999997	1013.88362	268.9785600000001	233.66054999999997	1014.00314	213.0434500000001	234.07886999999997	1044.89892	251.05064000000007	68.36513000000001	1240.31324	-131.71044999999992	339.31576	1046.57219	-38.78406999999989	322.28424	1044.60012	26.174760000000102	348.21996	1078.06557	1.5537500000001085	257.3254099999999	986.33438	267.7236000000001	185.43444999999997	613.43365	278.3608300000001	218.12301999999997	610.50543	227.98338000000007	359.93287	1001.99143	-15.597289999999893	157.28762000000003	730.68225	-188.00411999999992	145.81375000000003	710.66274	-132.42756999999992	164.57829999999998	480.10969	202.76477000000006	326.52717999999993	459.37306	292.88245000000006	266.46864999999997	451.72382	357.00464000000005	315.65090999999995	452.26165	340.80975000000007	196.07167999999996	472.04213	231.27016000000006	369.49442999999997	445.8076	390.4700900000001	29.760350000000024	651.2018	-200.97197999999997	140.91345000000004	523.31598	-123.04528999999995	167.80533000000003	525.10877	-207.06746999999993	171.09211000000002	506.64301	-158.78160999999994	57.787660000000024	619.34987	-192.66537999999997	223.74044000000004	457.58027	-143.00503999999995	
864	14.383	0.0	1249.99432	7.654007714701862E-14	19.063349999999982	1333.95675	142.2879200000001	99.14140000000002	1345.19157	-93.6434999999999	-12.071470000000014	1397.42158	111.27262000000009	53.724000000000004	1406.62458	-82.64770999999992	-65.49667	1196.7484	29.401790000000066	-32.56904999999999	1201.40966	-67.52849999999992	-58.08646	1270.96999	-18.704799999999928	-22.58918	1365.6294	-1.135429999999919	27.429719999999996	1459.51194	20.617110000000093	79.30116	1541.5023	42.4891700000001	306.26863	1559.78877	107.38824000000014	208.38219	1658.03377	89.81888000000012	142.94528	1612.19806	67.11018000000011	219.55726	1493.33595	76.73150000000011	245.67226	1683.6707	102.66722000000013	446.88328	1815.97875	138.28402000000017	377.44247	1744.56587	196.07168000000016	396.14727	1742.47428	65.55643000000016	347.50284	1776.7166	124.65880000000016	188.60171999999997	1636.10195	265.3929700000001	294.61548	1635.08604	-71.11407999999986	256.18996999999996	1422.10235	347.4430800000002	239.27796999999998	1394.55311	304.29656000000017	408.39801	1419.17412	-69.56032999999985	367.82115	1391.74441	-47.090669999999875	349.8334699999999	1257.70333	433.3178200000001	380.19141999999994	1258.24116	401.5256400000001	231.44943999999998	1412.18223	341.76591000000013	553.5544	1273.89821	-68.24560999999986	555.64599	1276.34836	-24.381969999999853	385.98811	1408.17833	-81.15371999999988	516.0850499999999	1249.63576	492.3604300000001	435.34964999999994	1245.51234	492.71899000000013	386.1076299999999	1243.42075	445.9868800000001	707.07715	1240.13397	17.27056000000016	655.44474	1250.53216	-44.042919999999846	588.21505	1257.16549	-50.975049999999854	-42.489170000000016	1227.64418	142.2281600000001	184.29900999999998	994.70074	260.07436000000007	221.52932999999996	994.88002	204.1392500000001	223.62091999999998	1024.22205	243.28187000000008	67.94682000000002	1241.2694	-131.7702099999999	348.1602	1063.42444	-34.60088999999989	331.12868	1061.9902	30.417700000000103	355.33137	1096.17277	5.139340000000111	245.79177999999996	967.62959	259.1779600000001	178.44255999999996	593.89222	272.08606000000003	211.19088999999997	591.08351	221.76837000000006	368.11995	1019.08272	-11.712909999999894	163.80143000000004	750.40296	-186.1515699999999	151.96900000000002	730.20417	-130.7542899999999	155.25577999999996	462.36105	194.15937000000005	316.48753999999997	436.84364	284.27705000000003	256.07044999999994	429.25416	348.16020000000003	305.31246999999996	429.07488	332.08483000000007	186.45035999999996	453.15805	222.60500000000005	358.91694999999993	420.64876	381.74517000000003	36.63272000000002	669.84684	-198.88038999999998	148.98101000000003	542.97693	-121.01345999999995	175.69361000000004	544.88924	-205.03563999999994	179.21944000000002	526.48324	-156.80953999999994	64.95883000000003	638.23394	-190.63354999999999	232.28608000000003	477.89858	-140.97320999999994	
865	14.4	0.0	1249.99432	7.654007714701862E-14	20.85614999999998	1333.83723	142.04888000000008	97.76692000000001	1345.37085	-94.8386999999999	-10.816510000000013	1397.30206	111.57142000000009	52.46904000000001	1406.80386	-83.24530999999992	-65.01859	1196.62888	30.23842000000007	-33.40568999999999	1201.40966	-67.16993999999993	-58.3255	1270.91023	-17.92791999999993	-22.76846	1365.56964	-0.8963999999999192	27.190679999999997	1459.5717	20.318310000000093	78.88285	1541.80109	41.6525300000001	305.96983	1561.16325	106.19304000000014	207.66507	1658.98993	88.14561000000013	142.34768	1612.79566	65.73571000000011	219.37798	1494.23235	76.01438000000012	244.89538	1684.80613	100.81467000000013	445.62832	1817.89106	136.07291000000018	376.42655	1746.41842	193.98009000000016	395.19111	1744.08779	63.524600000000156	346.42717	1778.27036	122.50745000000016	188.72122999999996	1637.59595	264.01850000000013	293.89836	1635.26532	-72.72758999999986	255.11429999999996	1423.47682	347.56260000000015	237.90348999999998	1395.68855	304.6551200000002	407.44186	1419.29364	-70.69575999999986	366.865	1391.98345	-47.92730999999987	348.45899999999995	1258.71924	433.37758000000014	378.69741999999997	1259.13756	401.46588000000014	230.31400999999997	1413.49695	342.0647100000001	552.53849	1273.95797	-68.42488999999986	554.4508	1276.40812	-24.561249999999855	385.09172	1408.29785	-82.16962999999987	514.8898499999999	1250.83096	491.8823600000001	434.21421999999995	1246.58802	492.5397100000001	384.7929199999999	1244.43667	445.9271200000001	705.64292	1239.17781	17.33032000000016	654.18979	1249.93456	-44.042919999999846	587.01985	1256.98621	-51.09456999999985	-42.25013000000001	1226.26971	141.9891200000001	171.98850999999996	977.90826	251.52871000000007	209.15905999999998	978.02778	195.53384000000008	212.80440999999996	1005.93557	235.6326200000001	67.58826000000002	1242.58411	-131.82996999999992	356.04849	1080.81452	-30.77625999999989	338.89744	1079.55956	34.182570000000105	361.42686	1114.57877	8.366360000000112	234.07886999999997	950.77734	251.1701600000001	169.47859999999997	576.68142	265.57225000000005	202.40620999999996	573.87271	215.31432000000007	375.64968	1036.59232	-7.709009999999891	171.51043000000004	768.39064	-183.1635799999999	159.31945000000002	748.19185	-127.82606999999994	143.36359999999996	447.18208	185.01613000000006	303.69895999999994	415.9875	275.07405000000006	242.98306999999997	408.63705	338.59864000000005	292.1653299999999	407.56137	322.64279000000005	174.31913999999998	436.66436	213.40200000000004	345.41124999999994	396.92414	372.30313000000007	45.29788000000002	685.50389	-194.87648999999996	160.03656000000004	561.32317	-116.23267999999996	186.45036000000002	562.87692	-200.37437999999995	190.45427000000004	545.00876	-151.96899999999994	74.16183000000002	654.42883	-186.39060999999998	244.35755000000003	497.55953	-135.89362999999994	
